<?xml version="1.0" encoding="UTF-8" standalone="no"?>
<!DOCTYPE svg PUBLIC "-//W3C//DTD SVG 1.1//EN"
 "http://www.w3.org/Graphics/SVG/1.1/DTD/svg11.dtd">
<!-- Generated by graphviz version 12.1.2 (20240928.0832)
 -->
<!-- Title: G Pages: 1 -->
<svg width="1715pt" height="393pt"
 viewBox="0.00 0.00 1714.70 393.28" xmlns="http://www.w3.org/2000/svg" xmlns:xlink="http://www.w3.org/1999/xlink">
<g id="graph0" class="graph" transform="scale(1 1) rotate(0) translate(21.6 371.68)">
<title>G</title>
<polygon fill="#111111" stroke="none" points="-21.6,21.6 -21.6,-371.68 1693.1,-371.68 1693.1,21.6 -21.6,21.6"/>
<!-- ../types/index.ts -->
<g id="node1" class="node">
<title>../types/index.ts</title>
<path fill="none" stroke="#c6c5fe" d="M658.71,-205.75C658.71,-205.75 564.79,-205.75 564.79,-205.75 560.83,-205.75 556.88,-201.79 556.88,-197.83 556.88,-197.83 556.88,-189.92 556.88,-189.92 556.88,-185.96 560.83,-182 564.79,-182 564.79,-182 658.71,-182 658.71,-182 662.67,-182 666.62,-185.96 666.62,-189.92 666.62,-189.92 666.62,-197.83 666.62,-197.83 666.62,-201.79 662.67,-205.75 658.71,-205.75"/>
<text text-anchor="middle" x="611.75" y="-188.45" font-family="Arial" font-size="14.00" fill="#c6c5fe">../types/index.ts</text>
</g>
<!-- ../types/operator&#45;type.enum.ts -->
<g id="node2" class="node">
<title>../types/operator&#45;type.enum.ts</title>
<path fill="none" stroke="#cfffac" d="M1270.08,-215.75C1270.08,-215.75 1089.92,-215.75 1089.92,-215.75 1085.96,-215.75 1082,-211.79 1082,-207.83 1082,-207.83 1082,-199.92 1082,-199.92 1082,-195.96 1085.96,-192 1089.92,-192 1089.92,-192 1270.08,-192 1270.08,-192 1274.04,-192 1278,-195.96 1278,-199.92 1278,-199.92 1278,-207.83 1278,-207.83 1278,-211.79 1274.04,-215.75 1270.08,-215.75"/>
<text text-anchor="middle" x="1180" y="-198.45" font-family="Arial" font-size="14.00" fill="#cfffac">../types/operator&#45;type.enum.ts</text>
</g>
<!-- ../types/index.ts&#45;&gt;../types/operator&#45;type.enum.ts -->
<g id="edge1" class="edge">
<title>../types/index.ts&#45;&gt;../types/operator&#45;type.enum.ts</title>
<path fill="none" stroke="#757575" d="M666.81,-192.24C748.83,-190.1 909.6,-187.24 1046,-192.88 1053.96,-193.2 1062.18,-193.64 1070.44,-194.16"/>
<polygon fill="#757575" stroke="#757575" points="1070,-197.63 1080.21,-194.8 1070.46,-190.65 1070,-197.63"/>
</g>
<!-- ../types/operator.ts -->
<g id="node3" class="node">
<title>../types/operator.ts</title>
<path fill="none" stroke="#c6c5fe" d="M951.46,-225.75C951.46,-225.75 840.29,-225.75 840.29,-225.75 836.33,-225.75 832.38,-221.79 832.38,-217.83 832.38,-217.83 832.38,-209.92 832.38,-209.92 832.38,-205.96 836.33,-202 840.29,-202 840.29,-202 951.46,-202 951.46,-202 955.42,-202 959.38,-205.96 959.38,-209.92 959.38,-209.92 959.38,-217.83 959.38,-217.83 959.38,-221.79 955.42,-225.75 951.46,-225.75"/>
<text text-anchor="middle" x="895.88" y="-208.45" font-family="Arial" font-size="14.00" fill="#c6c5fe">../types/operator.ts</text>
</g>
<!-- ../types/index.ts&#45;&gt;../types/operator.ts -->
<g id="edge2" class="edge">
<title>../types/index.ts&#45;&gt;../types/operator.ts</title>
<path fill="none" stroke="#757575" d="M666.81,-197.71C710.44,-200.8 772.27,-205.18 820.55,-208.61"/>
<polygon fill="#757575" stroke="#757575" points="820.15,-212.09 830.37,-209.3 820.65,-205.1 820.15,-212.09"/>
</g>
<!-- ../types/product.ts -->
<g id="node4" class="node">
<title>../types/product.ts</title>
<path fill="none" stroke="#c6c5fe" d="M949.21,-305.75C949.21,-305.75 842.54,-305.75 842.54,-305.75 838.58,-305.75 834.62,-301.79 834.62,-297.83 834.62,-297.83 834.62,-289.92 834.62,-289.92 834.62,-285.96 838.58,-282 842.54,-282 842.54,-282 949.21,-282 949.21,-282 953.17,-282 957.12,-285.96 957.12,-289.92 957.12,-289.92 957.12,-297.83 957.12,-297.83 957.12,-301.79 953.17,-305.75 949.21,-305.75"/>
<text text-anchor="middle" x="895.88" y="-288.45" font-family="Arial" font-size="14.00" fill="#c6c5fe">../types/product.ts</text>
</g>
<!-- ../types/index.ts&#45;&gt;../types/product.ts -->
<g id="edge3" class="edge">
<title>../types/index.ts&#45;&gt;../types/product.ts</title>
<path fill="none" stroke="#757575" d="M630.33,-206.21C654.96,-222.87 701.66,-252.27 745.75,-267.88 770.24,-276.54 798.06,-282.39 822.97,-286.31"/>
<polygon fill="#757575" stroke="#757575" points="822.29,-289.75 832.7,-287.76 823.32,-282.82 822.29,-289.75"/>
</g>
<!-- ../types/property&#45;type.enum.ts -->
<g id="node5" class="node">
<title>../types/property&#45;type.enum.ts</title>
<path fill="none" stroke="#cfffac" d="M1663.58,-206.75C1663.58,-206.75 1484.17,-206.75 1484.17,-206.75 1480.21,-206.75 1476.25,-202.79 1476.25,-198.83 1476.25,-198.83 1476.25,-190.92 1476.25,-190.92 1476.25,-186.96 1480.21,-183 1484.17,-183 1484.17,-183 1663.58,-183 1663.58,-183 1667.54,-183 1671.5,-186.96 1671.5,-190.92 1671.5,-190.92 1671.5,-198.83 1671.5,-198.83 1671.5,-202.79 1667.54,-206.75 1663.58,-206.75"/>
<text text-anchor="middle" x="1573.88" y="-189.45" font-family="Arial" font-size="14.00" fill="#cfffac">../types/property&#45;type.enum.ts</text>
</g>
<!-- ../types/index.ts&#45;&gt;../types/property&#45;type.enum.ts -->
<g id="edge4" class="edge">
<title>../types/index.ts&#45;&gt;../types/property&#45;type.enum.ts</title>
<path fill="none" stroke="#757575" d="M667.08,-189.98C691.16,-188.41 719.86,-186.77 745.75,-185.88 982.17,-177.72 1041.49,-178.06 1278,-182.88 1339.82,-184.13 1408.89,-186.87 1464.63,-189.42"/>
<polygon fill="#757575" stroke="#757575" points="1464.29,-192.9 1474.44,-189.87 1464.61,-185.91 1464.29,-192.9"/>
</g>
<!-- ../types/property&#45;value.ts -->
<g id="node6" class="node">
<title>../types/property&#45;value.ts</title>
<path fill="none" stroke="#c6c5fe" d="M1253.96,-275.75C1253.96,-275.75 1106.04,-275.75 1106.04,-275.75 1102.08,-275.75 1098.12,-271.79 1098.12,-267.83 1098.12,-267.83 1098.12,-259.92 1098.12,-259.92 1098.12,-255.96 1102.08,-252 1106.04,-252 1106.04,-252 1253.96,-252 1253.96,-252 1257.92,-252 1261.88,-255.96 1261.88,-259.92 1261.88,-259.92 1261.88,-267.83 1261.88,-267.83 1261.88,-271.79 1257.92,-275.75 1253.96,-275.75"/>
<text text-anchor="middle" x="1180" y="-258.45" font-family="Arial" font-size="14.00" fill="#c6c5fe">../types/property&#45;value.ts</text>
</g>
<!-- ../types/index.ts&#45;&gt;../types/property&#45;value.ts -->
<g id="edge5" class="edge">
<title>../types/index.ts&#45;&gt;../types/property&#45;value.ts</title>
<path fill="none" stroke="#757575" d="M645.29,-206.23C671.89,-215.77 710.7,-228.39 745.75,-234.88 861.86,-256.36 998.08,-262.41 1086.33,-263.87"/>
<polygon fill="#757575" stroke="#757575" points="1086.09,-267.36 1096.14,-264.01 1086.19,-260.37 1086.09,-267.36"/>
</g>
<!-- ../types/property.ts -->
<g id="node7" class="node">
<title>../types/property.ts</title>
<path fill="none" stroke="#c6c5fe" d="M1432.33,-275.75C1432.33,-275.75 1321.92,-275.75 1321.92,-275.75 1317.96,-275.75 1314,-271.79 1314,-267.83 1314,-267.83 1314,-259.92 1314,-259.92 1314,-255.96 1317.96,-252 1321.92,-252 1321.92,-252 1432.33,-252 1432.33,-252 1436.29,-252 1440.25,-255.96 1440.25,-259.92 1440.25,-259.92 1440.25,-267.83 1440.25,-267.83 1440.25,-271.79 1436.29,-275.75 1432.33,-275.75"/>
<text text-anchor="middle" x="1377.12" y="-258.45" font-family="Arial" font-size="14.00" fill="#c6c5fe">../types/property.ts</text>
</g>
<!-- ../types/index.ts&#45;&gt;../types/property.ts -->
<g id="edge6" class="edge">
<title>../types/index.ts&#45;&gt;../types/property.ts</title>
<path fill="none" stroke="#757575" d="M620.98,-205.87C639.58,-231.78 687.81,-292.46 745.75,-314.88 953.48,-395.23 1227.82,-316.21 1332.77,-279.94"/>
<polygon fill="#757575" stroke="#757575" points="1333.85,-283.27 1342.12,-276.66 1331.53,-276.67 1333.85,-283.27"/>
</g>
<!-- ../types/operator.ts&#45;&gt;../types/operator&#45;type.enum.ts -->
<g id="edge7" class="edge">
<title>../types/operator.ts&#45;&gt;../types/operator&#45;type.enum.ts</title>
<path fill="none" stroke="#757575" d="M959.84,-211.64C992.29,-210.49 1032.79,-209.06 1070.12,-207.73"/>
<polygon fill="#757575" stroke="#757575" points="1070.21,-211.23 1080.08,-207.38 1069.96,-204.24 1070.21,-211.23"/>
</g>
<!-- ../types/product.ts&#45;&gt;../types/property&#45;value.ts -->
<g id="edge8" class="edge">
<title>../types/product.ts&#45;&gt;../types/property&#45;value.ts</title>
<path fill="none" stroke="#757575" d="M957.4,-287.44C995,-283.44 1044.09,-278.22 1086.5,-273.71"/>
<polygon fill="#757575" stroke="#757575" points="1086.62,-277.22 1096.19,-272.68 1085.88,-270.26 1086.62,-277.22"/>
</g>
<!-- ../types/property&#45;value.ts&#45;&gt;../types/property.ts -->
<g id="edge9" class="edge">
<title>../types/property&#45;value.ts&#45;&gt;../types/property.ts</title>
<path fill="none" stroke="#757575" d="M1262.34,-263.88C1275.6,-263.88 1289.28,-263.88 1302.35,-263.88"/>
<polygon fill="#757575" stroke="#757575" points="1302.14,-267.38 1312.14,-263.88 1302.14,-260.38 1302.14,-267.38"/>
</g>
<!-- ../types/property.ts&#45;&gt;../types/property&#45;type.enum.ts -->
<g id="edge10" class="edge">
<title>../types/property.ts&#45;&gt;../types/property&#45;type.enum.ts</title>
<path fill="none" stroke="#757575" d="M1412.94,-251.54C1444.97,-240.19 1492.65,-223.3 1527.62,-210.91"/>
<polygon fill="#757575" stroke="#757575" points="1528.35,-214.36 1536.6,-207.73 1526.01,-207.77 1528.35,-214.36"/>
</g>
<!-- AutocompleteControl/AutocompleteControl.tsx -->
<g id="node8" class="node">
<title>AutocompleteControl/AutocompleteControl.tsx</title>
<path fill="none" stroke="#cfffac" d="M1035.08,-107.75C1035.08,-107.75 756.67,-107.75 756.67,-107.75 752.71,-107.75 748.75,-103.79 748.75,-99.83 748.75,-99.83 748.75,-91.92 748.75,-91.92 748.75,-87.96 752.71,-84 756.67,-84 756.67,-84 1035.08,-84 1035.08,-84 1039.04,-84 1043,-87.96 1043,-91.92 1043,-91.92 1043,-99.83 1043,-99.83 1043,-103.79 1039.04,-107.75 1035.08,-107.75"/>
<text text-anchor="middle" x="895.88" y="-90.45" font-family="Arial" font-size="14.00" fill="#cfffac">AutocompleteControl/AutocompleteControl.tsx</text>
</g>
<!-- AutocompleteControl/index.ts -->
<g id="node9" class="node">
<title>AutocompleteControl/index.ts</title>
<path fill="none" stroke="#c6c5fe" d="M700.33,-107.75C700.33,-107.75 523.17,-107.75 523.17,-107.75 519.21,-107.75 515.25,-103.79 515.25,-99.83 515.25,-99.83 515.25,-91.92 515.25,-91.92 515.25,-87.96 519.21,-84 523.17,-84 523.17,-84 700.33,-84 700.33,-84 704.29,-84 708.25,-87.96 708.25,-91.92 708.25,-91.92 708.25,-99.83 708.25,-99.83 708.25,-103.79 704.29,-107.75 700.33,-107.75"/>
<text text-anchor="middle" x="611.75" y="-90.45" font-family="Arial" font-size="14.00" fill="#c6c5fe">AutocompleteControl/index.ts</text>
</g>
<!-- AutocompleteControl/index.ts&#45;&gt;AutocompleteControl/AutocompleteControl.tsx -->
<g id="edge11" class="edge">
<title>AutocompleteControl/index.ts&#45;&gt;AutocompleteControl/AutocompleteControl.tsx</title>
<path fill="none" stroke="#757575" d="M708.66,-95.88C717.9,-95.88 727.43,-95.88 737.07,-95.88"/>
<polygon fill="#757575" stroke="#757575" points="736.91,-99.38 746.91,-95.88 736.91,-92.38 736.91,-99.38"/>
</g>
<!-- FilterControl/FilterControl.tsx -->
<g id="node10" class="node">
<title>FilterControl/FilterControl.tsx</title>
<path fill="none" stroke="#c6c5fe" d="M464.58,-103.75C464.58,-103.75 292.67,-103.75 292.67,-103.75 288.71,-103.75 284.75,-99.79 284.75,-95.83 284.75,-95.83 284.75,-87.92 284.75,-87.92 284.75,-83.96 288.71,-80 292.67,-80 292.67,-80 464.58,-80 464.58,-80 468.54,-80 472.5,-83.96 472.5,-87.92 472.5,-87.92 472.5,-95.83 472.5,-95.83 472.5,-99.79 468.54,-103.75 464.58,-103.75"/>
<text text-anchor="middle" x="378.62" y="-86.45" font-family="Arial" font-size="14.00" fill="#c6c5fe">FilterControl/FilterControl.tsx</text>
</g>
<!-- FilterControl/FilterControl.tsx&#45;&gt;../types/index.ts -->
<g id="edge12" class="edge">
<title>FilterControl/FilterControl.tsx&#45;&gt;../types/index.ts</title>
<path fill="none" stroke="#757575" d="M407.5,-104.18C448.72,-122.37 526.02,-156.48 572.5,-177"/>
<polygon fill="#757575" stroke="#757575" points="570.83,-180.08 581.39,-180.92 573.65,-173.68 570.83,-180.08"/>
</g>
<!-- FilterControl/FilterControl.tsx&#45;&gt;AutocompleteControl/index.ts -->
<g id="edge13" class="edge">
<title>FilterControl/FilterControl.tsx&#45;&gt;AutocompleteControl/index.ts</title>
<path fill="none" stroke="#757575" d="M472.97,-93.49C482.98,-93.66 493.22,-93.84 503.38,-94.02"/>
<polygon fill="#757575" stroke="#757575" points="503.23,-97.51 513.29,-94.19 503.35,-90.52 503.23,-97.51"/>
</g>
<!-- SelectFormControl/index.ts -->
<g id="node11" class="node">
<title>SelectFormControl/index.ts</title>
<path fill="none" stroke="#c6c5fe" d="M693.58,-65.75C693.58,-65.75 529.92,-65.75 529.92,-65.75 525.96,-65.75 522,-61.79 522,-57.83 522,-57.83 522,-49.92 522,-49.92 522,-45.96 525.96,-42 529.92,-42 529.92,-42 693.58,-42 693.58,-42 697.54,-42 701.5,-45.96 701.5,-49.92 701.5,-49.92 701.5,-57.83 701.5,-57.83 701.5,-61.79 697.54,-65.75 693.58,-65.75"/>
<text text-anchor="middle" x="611.75" y="-48.45" font-family="Arial" font-size="14.00" fill="#c6c5fe">SelectFormControl/index.ts</text>
</g>
<!-- FilterControl/FilterControl.tsx&#45;&gt;SelectFormControl/index.ts -->
<g id="edge14" class="edge">
<title>FilterControl/FilterControl.tsx&#45;&gt;SelectFormControl/index.ts</title>
<path fill="none" stroke="#757575" d="M454.66,-79.54C476.98,-75.87 501.6,-71.82 524.57,-68.04"/>
<polygon fill="#757575" stroke="#757575" points="524.9,-71.54 534.2,-66.46 523.76,-64.63 524.9,-71.54"/>
</g>
<!-- TextFieldFormControl/index.ts -->
<g id="node12" class="node">
<title>TextFieldFormControl/index.ts</title>
<path fill="none" stroke="#c6c5fe" d="M701.83,-23.75C701.83,-23.75 521.67,-23.75 521.67,-23.75 517.71,-23.75 513.75,-19.79 513.75,-15.83 513.75,-15.83 513.75,-7.92 513.75,-7.92 513.75,-3.96 517.71,0 521.67,0 521.67,0 701.83,0 701.83,0 705.79,0 709.75,-3.96 709.75,-7.92 709.75,-7.92 709.75,-15.83 709.75,-15.83 709.75,-19.79 705.79,-23.75 701.83,-23.75"/>
<text text-anchor="middle" x="611.75" y="-6.45" font-family="Arial" font-size="14.00" fill="#c6c5fe">TextFieldFormControl/index.ts</text>
</g>
<!-- FilterControl/FilterControl.tsx&#45;&gt;TextFieldFormControl/index.ts -->
<g id="edge15" class="edge">
<title>FilterControl/FilterControl.tsx&#45;&gt;TextFieldFormControl/index.ts</title>
<path fill="none" stroke="#757575" d="M403.29,-79.72C429.65,-66.6 473.83,-45.83 513.75,-32.88 520.31,-30.75 527.19,-28.77 534.13,-26.95"/>
<polygon fill="#757575" stroke="#757575" points="534.73,-30.41 543.58,-24.59 533.03,-23.62 534.73,-30.41"/>
</g>
<!-- SelectFormControl/SelectFormControl.tsx -->
<g id="node16" class="node">
<title>SelectFormControl/SelectFormControl.tsx</title>
<path fill="none" stroke="#cfffac" d="M1021.58,-65.75C1021.58,-65.75 770.17,-65.75 770.17,-65.75 766.21,-65.75 762.25,-61.79 762.25,-57.83 762.25,-57.83 762.25,-49.92 762.25,-49.92 762.25,-45.96 766.21,-42 770.17,-42 770.17,-42 1021.58,-42 1021.58,-42 1025.54,-42 1029.5,-45.96 1029.5,-49.92 1029.5,-49.92 1029.5,-57.83 1029.5,-57.83 1029.5,-61.79 1025.54,-65.75 1021.58,-65.75"/>
<text text-anchor="middle" x="895.88" y="-48.45" font-family="Arial" font-size="14.00" fill="#cfffac">SelectFormControl/SelectFormControl.tsx</text>
</g>
<!-- SelectFormControl/index.ts&#45;&gt;SelectFormControl/SelectFormControl.tsx -->
<g id="edge19" class="edge">
<title>SelectFormControl/index.ts&#45;&gt;SelectFormControl/SelectFormControl.tsx</title>
<path fill="none" stroke="#757575" d="M701.63,-53.88C717.18,-53.88 733.72,-53.88 750.32,-53.88"/>
<polygon fill="#757575" stroke="#757575" points="750.29,-57.38 760.29,-53.88 750.29,-50.38 750.29,-57.38"/>
</g>
<!-- TextFieldFormControl/TextFieldFormControl.tsx -->
<g id="node17" class="node">
<title>TextFieldFormControl/TextFieldFormControl.tsx</title>
<path fill="none" stroke="#cfffac" d="M1038.08,-23.75C1038.08,-23.75 753.67,-23.75 753.67,-23.75 749.71,-23.75 745.75,-19.79 745.75,-15.83 745.75,-15.83 745.75,-7.92 745.75,-7.92 745.75,-3.96 749.71,0 753.67,0 753.67,0 1038.08,0 1038.08,0 1042.04,0 1046,-3.96 1046,-7.92 1046,-7.92 1046,-15.83 1046,-15.83 1046,-19.79 1042.04,-23.75 1038.08,-23.75"/>
<text text-anchor="middle" x="895.88" y="-6.45" font-family="Arial" font-size="14.00" fill="#cfffac">TextFieldFormControl/TextFieldFormControl.tsx</text>
</g>
<!-- TextFieldFormControl/index.ts&#45;&gt;TextFieldFormControl/TextFieldFormControl.tsx -->
<g id="edge20" class="edge">
<title>TextFieldFormControl/index.ts&#45;&gt;TextFieldFormControl/TextFieldFormControl.tsx</title>
<path fill="none" stroke="#757575" d="M710.24,-11.88C718.03,-11.88 726.02,-11.88 734.1,-11.88"/>
<polygon fill="#757575" stroke="#757575" points="734.06,-15.38 744.06,-11.88 734.06,-8.38 734.06,-15.38"/>
</g>
<!-- FilterControl/index.ts -->
<g id="node13" class="node">
<title>FilterControl/index.ts</title>
<path fill="none" stroke="#c6c5fe" d="M232.96,-103.75C232.96,-103.75 109.04,-103.75 109.04,-103.75 105.08,-103.75 101.12,-99.79 101.12,-95.83 101.12,-95.83 101.12,-87.92 101.12,-87.92 101.12,-83.96 105.08,-80 109.04,-80 109.04,-80 232.96,-80 232.96,-80 236.92,-80 240.88,-83.96 240.88,-87.92 240.88,-87.92 240.88,-95.83 240.88,-95.83 240.88,-99.79 236.92,-103.75 232.96,-103.75"/>
<text text-anchor="middle" x="171" y="-86.45" font-family="Arial" font-size="14.00" fill="#c6c5fe">FilterControl/index.ts</text>
</g>
<!-- FilterControl/index.ts&#45;&gt;FilterControl/FilterControl.tsx -->
<g id="edge16" class="edge">
<title>FilterControl/index.ts&#45;&gt;FilterControl/FilterControl.tsx</title>
<path fill="none" stroke="#757575" d="M241.33,-91.88C251.63,-91.88 262.43,-91.88 273.25,-91.88"/>
<polygon fill="#757575" stroke="#757575" points="273,-95.38 283,-91.88 273,-88.38 273,-95.38"/>
</g>
<!-- ProductTable/ProductTable.tsx -->
<g id="node14" class="node">
<title>ProductTable/ProductTable.tsx</title>
<path fill="none" stroke="#c6c5fe" d="M469.83,-205.75C469.83,-205.75 287.42,-205.75 287.42,-205.75 283.46,-205.75 279.5,-201.79 279.5,-197.83 279.5,-197.83 279.5,-189.92 279.5,-189.92 279.5,-185.96 283.46,-182 287.42,-182 287.42,-182 469.83,-182 469.83,-182 473.79,-182 477.75,-185.96 477.75,-189.92 477.75,-189.92 477.75,-197.83 477.75,-197.83 477.75,-201.79 473.79,-205.75 469.83,-205.75"/>
<text text-anchor="middle" x="378.62" y="-188.45" font-family="Arial" font-size="14.00" fill="#c6c5fe">ProductTable/ProductTable.tsx</text>
</g>
<!-- ProductTable/ProductTable.tsx&#45;&gt;../types/index.ts -->
<g id="edge17" class="edge">
<title>ProductTable/ProductTable.tsx&#45;&gt;../types/index.ts</title>
<path fill="none" stroke="#757575" d="M477.98,-193.88C500.68,-193.88 524.29,-193.88 545.19,-193.88"/>
<polygon fill="#757575" stroke="#757575" points="544.99,-197.38 554.99,-193.88 544.99,-190.38 544.99,-197.38"/>
</g>
<!-- ProductTable/index.ts -->
<g id="node15" class="node">
<title>ProductTable/index.ts</title>
<path fill="none" stroke="#c6c5fe" d="M235.58,-184.75C235.58,-184.75 106.42,-184.75 106.42,-184.75 102.46,-184.75 98.5,-180.79 98.5,-176.83 98.5,-176.83 98.5,-168.92 98.5,-168.92 98.5,-164.96 102.46,-161 106.42,-161 106.42,-161 235.58,-161 235.58,-161 239.54,-161 243.5,-164.96 243.5,-168.92 243.5,-168.92 243.5,-176.83 243.5,-176.83 243.5,-180.79 239.54,-184.75 235.58,-184.75"/>
<text text-anchor="middle" x="171" y="-167.45" font-family="Arial" font-size="14.00" fill="#c6c5fe">ProductTable/index.ts</text>
</g>
<!-- ProductTable/index.ts&#45;&gt;ProductTable/ProductTable.tsx -->
<g id="edge18" class="edge">
<title>ProductTable/index.ts&#45;&gt;ProductTable/ProductTable.tsx</title>
<path fill="none" stroke="#757575" d="M243.92,-180.22C251.63,-181.01 259.6,-181.82 267.63,-182.64"/>
<polygon fill="#757575" stroke="#757575" points="267.19,-186.11 277.49,-183.65 267.9,-179.15 267.19,-186.11"/>
</g>
<!-- index.ts -->
<g id="node18" class="node">
<title>index.ts</title>
<path fill="none" stroke="#c6c5fe" d="M54.58,-103.75C54.58,-103.75 7.92,-103.75 7.92,-103.75 3.96,-103.75 0,-99.79 0,-95.83 0,-95.83 0,-87.92 0,-87.92 0,-83.96 3.96,-80 7.92,-80 7.92,-80 54.58,-80 54.58,-80 58.54,-80 62.5,-83.96 62.5,-87.92 62.5,-87.92 62.5,-95.83 62.5,-95.83 62.5,-99.79 58.54,-103.75 54.58,-103.75"/>
<text text-anchor="middle" x="31.25" y="-86.45" font-family="Arial" font-size="14.00" fill="#c6c5fe">index.ts</text>
</g>
<!-- index.ts&#45;&gt;AutocompleteControl/index.ts -->
<g id="edge21" class="edge">
<title>index.ts&#45;&gt;AutocompleteControl/index.ts</title>
<path fill="none" stroke="#757575" d="M62.79,-103.71C73.86,-107.42 86.58,-111.03 98.5,-112.88 265.07,-138.64 309.53,-123.58 477.75,-112.88 490.06,-112.09 502.97,-110.9 515.7,-109.51"/>
<polygon fill="#757575" stroke="#757575" points="515.79,-113.03 525.33,-108.42 515,-106.07 515.79,-113.03"/>
</g>
<!-- index.ts&#45;&gt;SelectFormControl/index.ts -->
<g id="edge24" class="edge">
<title>index.ts&#45;&gt;SelectFormControl/index.ts</title>
<path fill="none" stroke="#757575" d="M62.82,-80.26C73.9,-76.57 86.61,-72.92 98.5,-70.88 239.87,-46.6 406.33,-46.15 510.21,-49.16"/>
<polygon fill="#757575" stroke="#757575" points="510.01,-52.65 520.11,-49.46 510.22,-45.65 510.01,-52.65"/>
</g>
<!-- index.ts&#45;&gt;TextFieldFormControl/index.ts -->
<g id="edge25" class="edge">
<title>index.ts&#45;&gt;TextFieldFormControl/index.ts</title>
<path fill="none" stroke="#757575" d="M46.94,-79.54C59.69,-69.61 79.11,-56.29 98.5,-49.88 232.47,-5.55 396.53,-1.5 502.3,-4.87"/>
<polygon fill="#757575" stroke="#757575" points="502,-8.37 512.11,-5.22 502.24,-1.37 502,-8.37"/>
</g>
<!-- index.ts&#45;&gt;FilterControl/index.ts -->
<g id="edge22" class="edge">
<title>index.ts&#45;&gt;FilterControl/index.ts</title>
<path fill="none" stroke="#757575" d="M62.82,-91.88C70.97,-91.88 80.16,-91.88 89.66,-91.88"/>
<polygon fill="#757575" stroke="#757575" points="89.38,-95.38 99.38,-91.88 89.38,-88.38 89.38,-95.38"/>
</g>
<!-- index.ts&#45;&gt;ProductTable/index.ts -->
<g id="edge23" class="edge">
<title>index.ts&#45;&gt;ProductTable/index.ts</title>
<path fill="none" stroke="#757575" d="M44.53,-103.96C57.19,-115.9 77.93,-134.03 98.5,-145.88 105.14,-149.7 112.43,-153.18 119.73,-156.26"/>
<polygon fill="#757575" stroke="#757575" points="118.38,-159.49 128.96,-159.94 120.97,-152.99 118.38,-159.49"/>
</g>
</g>
</svg>
