<?xml version="1.0" encoding="UTF-8" standalone="no"?>
<!DOCTYPE svg PUBLIC "-//W3C//DTD SVG 1.1//EN"
 "http://www.w3.org/Graphics/SVG/1.1/DTD/svg11.dtd">
<!-- Generated by graphviz version 12.1.2 (20240928.0832)
 -->
<!-- Title: G Pages: 1 -->
<svg width="705pt" height="230pt"
 viewBox="0.00 0.00 705.20 230.18" xmlns="http://www.w3.org/2000/svg" xmlns:xlink="http://www.w3.org/1999/xlink">
<g id="graph0" class="graph" transform="scale(1 1) rotate(0) translate(21.6 208.58)">
<title>G</title>
<polygon fill="#111111" stroke="none" points="-21.6,21.6 -21.6,-208.58 683.6,-208.58 683.6,21.6 -21.6,21.6"/>
<!-- index.ts -->
<g id="node1" class="node">
<title>index.ts</title>
<path fill="none" stroke="#c6c5fe" d="M54.58,-99.75C54.58,-99.75 7.92,-99.75 7.92,-99.75 3.96,-99.75 0,-95.79 0,-91.83 0,-91.83 0,-83.92 0,-83.92 0,-79.96 3.96,-76 7.92,-76 7.92,-76 54.58,-76 54.58,-76 58.54,-76 62.5,-79.96 62.5,-83.92 62.5,-83.92 62.5,-91.83 62.5,-91.83 62.5,-95.79 58.54,-99.75 54.58,-99.75"/>
<text text-anchor="middle" x="31.25" y="-82.45" font-family="Arial" font-size="14.00" fill="#c6c5fe">index.ts</text>
</g>
<!-- operator&#45;type.enum.ts -->
<g id="node2" class="node">
<title>operator&#45;type.enum.ts</title>
<path fill="none" stroke="#cfffac" d="M355.08,-181.75C355.08,-181.75 222.17,-181.75 222.17,-181.75 218.21,-181.75 214.25,-177.79 214.25,-173.83 214.25,-173.83 214.25,-165.92 214.25,-165.92 214.25,-161.96 218.21,-158 222.17,-158 222.17,-158 355.08,-158 355.08,-158 359.04,-158 363,-161.96 363,-165.92 363,-165.92 363,-173.83 363,-173.83 363,-177.79 359.04,-181.75 355.08,-181.75"/>
<text text-anchor="middle" x="288.62" y="-164.45" font-family="Arial" font-size="14.00" fill="#cfffac">operator&#45;type.enum.ts</text>
</g>
<!-- index.ts&#45;&gt;operator&#45;type.enum.ts -->
<g id="edge1" class="edge">
<title>index.ts&#45;&gt;operator&#45;type.enum.ts</title>
<path fill="none" stroke="#757575" d="M37.62,-100.07C46.85,-119.32 67.77,-156.08 98.5,-170.88 137.01,-189.41 185.24,-188.84 223.36,-183.8"/>
<polygon fill="#757575" stroke="#757575" points="223.45,-187.32 232.84,-182.41 222.44,-180.4 223.45,-187.32"/>
</g>
<!-- operator.ts -->
<g id="node3" class="node">
<title>operator.ts</title>
<path fill="none" stroke="#c6c5fe" d="M170.33,-161.75C170.33,-161.75 106.42,-161.75 106.42,-161.75 102.46,-161.75 98.5,-157.79 98.5,-153.83 98.5,-153.83 98.5,-145.92 98.5,-145.92 98.5,-141.96 102.46,-138 106.42,-138 106.42,-138 170.33,-138 170.33,-138 174.29,-138 178.25,-141.96 178.25,-145.92 178.25,-145.92 178.25,-153.83 178.25,-153.83 178.25,-157.79 174.29,-161.75 170.33,-161.75"/>
<text text-anchor="middle" x="138.38" y="-144.45" font-family="Arial" font-size="14.00" fill="#c6c5fe">operator.ts</text>
</g>
<!-- index.ts&#45;&gt;operator.ts -->
<g id="edge2" class="edge">
<title>index.ts&#45;&gt;operator.ts</title>
<path fill="none" stroke="#757575" d="M51.49,-100.2C64.62,-108.5 82.46,-119.59 98.5,-128.88 100.39,-129.97 102.34,-131.08 104.32,-132.19"/>
<polygon fill="#757575" stroke="#757575" points="102.46,-135.16 112.9,-136.93 105.84,-129.03 102.46,-135.16"/>
</g>
<!-- product.ts -->
<g id="node4" class="node">
<title>product.ts</title>
<path fill="none" stroke="#c6c5fe" d="M168.08,-119.75C168.08,-119.75 108.67,-119.75 108.67,-119.75 104.71,-119.75 100.75,-115.79 100.75,-111.83 100.75,-111.83 100.75,-103.92 100.75,-103.92 100.75,-99.96 104.71,-96 108.67,-96 108.67,-96 168.08,-96 168.08,-96 172.04,-96 176,-99.96 176,-103.92 176,-103.92 176,-111.83 176,-111.83 176,-115.79 172.04,-119.75 168.08,-119.75"/>
<text text-anchor="middle" x="138.38" y="-102.45" font-family="Arial" font-size="14.00" fill="#c6c5fe">product.ts</text>
</g>
<!-- index.ts&#45;&gt;product.ts -->
<g id="edge3" class="edge">
<title>index.ts&#45;&gt;product.ts</title>
<path fill="none" stroke="#757575" d="M62.94,-93.71C71.21,-95.29 80.35,-97.03 89.32,-98.73"/>
<polygon fill="#757575" stroke="#757575" points="88.54,-102.15 99.02,-100.58 89.85,-95.27 88.54,-102.15"/>
</g>
<!-- property&#45;type.enum.ts -->
<g id="node5" class="node">
<title>property&#45;type.enum.ts</title>
<path fill="none" stroke="#cfffac" d="M654.08,-23.75C654.08,-23.75 521.92,-23.75 521.92,-23.75 517.96,-23.75 514,-19.79 514,-15.83 514,-15.83 514,-7.92 514,-7.92 514,-3.96 517.96,0 521.92,0 521.92,0 654.08,0 654.08,0 658.04,0 662,-3.96 662,-7.92 662,-7.92 662,-15.83 662,-15.83 662,-19.79 658.04,-23.75 654.08,-23.75"/>
<text text-anchor="middle" x="588" y="-6.45" font-family="Arial" font-size="14.00" fill="#cfffac">property&#45;type.enum.ts</text>
</g>
<!-- index.ts&#45;&gt;property&#45;type.enum.ts -->
<g id="edge4" class="edge">
<title>index.ts&#45;&gt;property&#45;type.enum.ts</title>
<path fill="none" stroke="#757575" d="M50.92,-75.63C63.8,-67.72 81.58,-57.83 98.5,-51.88 258.51,4.48 308.35,-10.1 478,-10.88 485.94,-10.91 494.2,-10.96 502.46,-11.02"/>
<polygon fill="#757575" stroke="#757575" points="502.17,-14.52 512.2,-11.1 502.22,-7.52 502.17,-14.52"/>
</g>
<!-- property&#45;value.ts -->
<g id="node6" class="node">
<title>property&#45;value.ts</title>
<path fill="none" stroke="#c6c5fe" d="M338.96,-81.75C338.96,-81.75 238.29,-81.75 238.29,-81.75 234.33,-81.75 230.38,-77.79 230.38,-73.83 230.38,-73.83 230.38,-65.92 230.38,-65.92 230.38,-61.96 234.33,-58 238.29,-58 238.29,-58 338.96,-58 338.96,-58 342.92,-58 346.88,-61.96 346.88,-65.92 346.88,-65.92 346.88,-73.83 346.88,-73.83 346.88,-77.79 342.92,-81.75 338.96,-81.75"/>
<text text-anchor="middle" x="288.62" y="-64.45" font-family="Arial" font-size="14.00" fill="#c6c5fe">property&#45;value.ts</text>
</g>
<!-- index.ts&#45;&gt;property&#45;value.ts -->
<g id="edge5" class="edge">
<title>index.ts&#45;&gt;property&#45;value.ts</title>
<path fill="none" stroke="#757575" d="M62.8,-85.72C101.08,-83.02 167.82,-78.32 218.67,-74.74"/>
<polygon fill="#757575" stroke="#757575" points="218.68,-78.24 228.41,-74.05 218.19,-71.26 218.68,-78.24"/>
</g>
<!-- property.ts -->
<g id="node7" class="node">
<title>property.ts</title>
<path fill="none" stroke="#c6c5fe" d="M470.08,-43.75C470.08,-43.75 406.92,-43.75 406.92,-43.75 402.96,-43.75 399,-39.79 399,-35.83 399,-35.83 399,-27.92 399,-27.92 399,-23.96 402.96,-20 406.92,-20 406.92,-20 470.08,-20 470.08,-20 474.04,-20 478,-23.96 478,-27.92 478,-27.92 478,-35.83 478,-35.83 478,-39.79 474.04,-43.75 470.08,-43.75"/>
<text text-anchor="middle" x="438.5" y="-26.45" font-family="Arial" font-size="14.00" fill="#c6c5fe">property.ts</text>
</g>
<!-- index.ts&#45;&gt;property.ts -->
<g id="edge6" class="edge">
<title>index.ts&#45;&gt;property.ts</title>
<path fill="none" stroke="#757575" d="M62.94,-79.97C98.93,-71.01 160.52,-56.64 214.25,-48.88 273.35,-40.33 341.92,-35.92 387.3,-33.76"/>
<polygon fill="#757575" stroke="#757575" points="387.27,-37.26 397.1,-33.31 386.95,-30.27 387.27,-37.26"/>
</g>
<!-- operator.ts&#45;&gt;operator&#45;type.enum.ts -->
<g id="edge7" class="edge">
<title>operator.ts&#45;&gt;operator&#45;type.enum.ts</title>
<path fill="none" stroke="#757575" d="M178.71,-155.18C186.2,-156.19 194.31,-157.29 202.59,-158.4"/>
<polygon fill="#757575" stroke="#757575" points="202.09,-161.87 212.47,-159.74 203.03,-154.93 202.09,-161.87"/>
</g>
<!-- product.ts&#45;&gt;property&#45;value.ts -->
<g id="edge8" class="edge">
<title>product.ts&#45;&gt;property&#45;value.ts</title>
<path fill="none" stroke="#757575" d="M176.4,-98.38C192.17,-94.34 210.94,-89.53 228.54,-85.02"/>
<polygon fill="#757575" stroke="#757575" points="229.32,-88.43 238.13,-82.56 227.58,-81.65 229.32,-88.43"/>
</g>
<!-- property&#45;value.ts&#45;&gt;property.ts -->
<g id="edge9" class="edge">
<title>property&#45;value.ts&#45;&gt;property.ts</title>
<path fill="none" stroke="#757575" d="M337.64,-57.54C353.67,-53.42 371.57,-48.82 387.73,-44.66"/>
<polygon fill="#757575" stroke="#757575" points="388.32,-48.13 397.13,-42.25 386.58,-41.35 388.32,-48.13"/>
</g>
<!-- property.ts&#45;&gt;property&#45;type.enum.ts -->
<g id="edge10" class="edge">
<title>property.ts&#45;&gt;property&#45;type.enum.ts</title>
<path fill="none" stroke="#757575" d="M478.25,-26.62C485.85,-25.59 494.09,-24.47 502.52,-23.33"/>
<polygon fill="#757575" stroke="#757575" points="502.74,-26.83 512.18,-22.02 501.8,-19.9 502.74,-26.83"/>
</g>
</g>
</svg>
